<svg xmlns="http://www.w3.org/2000/svg" xmlns:xlink="http://www.w3.org/1999/xlink" viewBox="0 0 414.31 563.08"><defs><style>.cls-1{fill:none;}.cls-2{fill:#27aae1;}.cls-3{isolation:isolate;}.cls-4{fill:#8dc641;}.cls-5{fill:#7ba840;}.cls-6{fill:#e83d32;}.cls-7{fill:#010101;opacity:0.1;}.cls-21,.cls-7{mix-blend-mode:multiply;}.cls-15,.cls-8{fill:#fff;}.cls-9{fill:#423729;}.cls-10{fill:#e83f31;}.cls-11{fill:#754c29;}.cls-12{fill:#e93c31;}.cls-13{fill:#939598;}.cls-14{fill:#6d6e71;}.cls-15{opacity:0.28;}.cls-16{fill:#77d1f0;}.cls-17{fill:#a97c50;}.cls-18{fill:#52b7d2;}.cls-19{fill:#8b5e3c;}.cls-20{fill:#f8ae41;}.cls-21{fill:#231f20;opacity:0.2;}.cls-22{clip-path:url(#clip-path);}.cls-23{fill:#474038;}.cls-24{clip-path:url(#clip-path-2);}.cls-25{fill:#1b7493;}.cls-26{fill:#f8cc99;}.cls-27{fill:#b28149;}.cls-28{fill:#f9b76a;}.cls-29{fill:#d8b088;}</style><clipPath id="clip-path"><path class="cls-1" d="M295.73,307.5l7.92-8.59s.1,14.69.21,15S295.73,307.5,295.73,307.5Z"/></clipPath><clipPath id="clip-path-2"><path class="cls-2" d="M103.59,245.21l21.16-9.63s-11.16,27-11.23,27.74S103.59,245.21,103.59,245.21Z"/></clipPath></defs><title>Artboard 1 copy 2</title><g class="cls-3"><g id="Layer_1" data-name="Layer 1"><path class="cls-4" d="M109,471.93a10.67,10.67,0,0,1,.15-15.67c4.61-4.06,12.87-3.85,17.13.45-11.71-8.94-13.7-26.52-4.71-37.95s27.4-15.45,41.17-9.4,21.69,21.17,18.83,35c-3.13-7.62-2.53-17.28,4.16-22.76s19.8-3.17,21.34,4.86a24.3,24.3,0,0,1,4.69-27.08c7-7.26,18.77-10.36,28.85-7.62,6.86,1.87,12.64,6.1,17.73,10.69,8.8,7.92,16.49,18.27,15.58,29.59-1.14,14-15.18,25.75-14.28,39.78"/><path class="cls-5" d="M170.86,377.47a6.48,6.48,0,0,0-7.74-.24,13.2,13.2,0,0,0,1.73-17.88c-4.35-5.53-13.25-7.47-19.9-4.55a15.82,15.82,0,0,0-8.65,9.61,7.74,7.74,0,0,0-2.47-3.71c-2.82-2.3-8-1.75-9.77,1v0A11.82,11.82,0,0,0,121.24,350c-6.58-6.82-20.22-6.83-26.82,0a11.86,11.86,0,0,0-2.81,11.71v0c-1.78-2.74-6.95-3.29-9.76-1a7.6,7.6,0,0,0-2.47,3.71,15.85,15.85,0,0,0-8.65-9.61c-6.66-2.92-15.55-1-19.9,4.55a13.18,13.18,0,0,0,1.73,17.88,6.48,6.48,0,0,0-7.74.24,5.16,5.16,0,0,0-.07,7.58l63.09-.06,63.09.06A5.15,5.15,0,0,0,170.86,377.47Z"/><path class="cls-6" d="M243.79,278.81l-29.44.48L213.59,499l3.58-.13,2.24-201.41,20.5,2.33C241.22,292.79,242.58,285.82,243.79,278.81Z"/><polygon class="cls-6" points="264.21 293.05 267.66 204.65 209.38 212.29 209.59 290.11 264.21 293.05"/><path class="cls-7" d="M353.45,504.36c0,1.34-63.88,2.43-142.68,2.43S68.06,505.7,68.06,504.36s63.88-2.43,142.71-2.43S353.45,503,353.45,504.36Z"/><polygon class="cls-8" points="262.94 204.26 313.77 173.66 316.73 105.47 317.33 83.81 333.49 41.23 320.13 33.15 284.61 45.3 247.04 68.93 191.97 36.43 164.54 24.07 172.94 74.53 153.96 120.16 167.07 162.47 212.19 202.29 262.94 204.26"/><path class="cls-6" d="M308.54,195.29c.55-1,1.14-2,1.75-2.94a97.48,97.48,0,0,1,7.19-12.9c.12-.23.23-.46.35-.68a57.22,57.22,0,0,1,3.29-5.9c1.58-2.77,6-7.86,6.41-8.41,1.78-2.29,3.38-4.34,5-6.22l-.06,0,.42-.38,0,0a49.79,49.79,0,0,1,8.55-8c-.22-2.53-.46-4.09-.46-4.09a9.68,9.68,0,0,1,2,3,64.29,64.29,0,0,1,5.56-3.33l.05,0c-3.66-19.78-20.56-37.82-20.56-37.82,7.74,3.65,20.75,20.32,20.75,20.32-5.86-18.57-29.45-34-29.45-34,22.17-42.26,18.94-59.28,18.94-59.28-34-9.89-69.24,14.81-69.24,14.81-19.61-17.21-41.52-12.63-41.52-12.63,8.62,1.11,16.57,8.1,16.57,8.1a166.54,166.54,0,0,0-33-3.89c-3.25-5.89-16.52-24.59-52.75-20.51,0,0-3.73,27.4,4.27,42.17-11,6.17-11.59,10.61-11.59,10.61l11.38-3.7-3.74,27.3a47.13,47.13,0,0,0-22.41,16.33c2.52-1.85,11.4-1.89,11.4-1.89C126.84,125.35,125,146,125,146a12.86,12.86,0,0,1,8.1-6c-11.78,28.33,8.89,36.94,8.89,36.94-.95-1.42-1.35-9.14-1.35-9.14,6.66,21.37,26.09,36.53,26.09,36.53-1.34-2.51-4.14-15.59-4.14-15.59,4.6,14.48,22.14,24.81,22.14,24.81-2.12-1.88-5.6-14.7-5.6-14.7,7.36,11,15.53,16.61,21,19.41a29.68,29.68,0,0,0,6.4,2.54c.85.22,1.68.43,2.51.62h0l-.14.11a54.17,54.17,0,0,1,12.17,2.62c-15-5.1-9.2-1.93-.19-2.1,6.61-.13,11.07.9,16.76-1.07,11.8-4.08,23.59-7.76,35.62-11.17,13.15-3.74,20.69-8.17,32.34-13.66Zm-140-165.38C189.05,30,202.21,44.64,199.18,46c-7.05,3.13-24.64,18.69-24.64,18.69C164.79,55.56,168.52,29.91,168.52,29.91ZM178,154s-7.09-8.28-9.43-15.89,11.86-3.2,24.62,1S178,154,178,154Zm76.66-35.83c-1.43,18.87-15.25,33.22-30.86,32s-27.12-17.44-25.69-36.32,16.15-45.22,31.76-44S256,99.28,254.61,118.16Zm31.92-61.5s22.79-17.49,40-12.27c0,0-4.6,23.58-16,34.15C310.51,78.54,299.75,64.14,286.53,56.66Z"/><path class="cls-6" d="M282.73,223.87a93.76,93.76,0,0,0,19.18-7.54,53.94,53.94,0,0,1,8.38-24,97.48,97.48,0,0,1,7.19-12.9c.12-.23.23-.46.35-.68a57.22,57.22,0,0,1,3.29-5.9c1.58-2.77,6-7.86,6.41-8.41,1.78-2.29,3.38-4.34,5-6.22l-.06,0,.42-.38,0,0a49,49,0,0,1,9.22-8.44c-.1-2-.22-3.09-.22-3.09s-23.71,2.16-24.6,2.36-34.94,40.12-34.94,40.12l-81.14,30.06C246.7,241.26,302.1,205,302.1,205A54.68,54.68,0,0,1,282.73,223.87Z"/><ellipse class="cls-6" cx="240.26" cy="121.39" rx="12.14" ry="4.82" transform="translate(83.65 340.32) rotate(-81.23)"/><ellipse class="cls-8" cx="184.33" cy="111.56" rx="12.14" ry="4.82" transform="translate(45.96 276.71) rotate(-81.23)"/><polygon class="cls-9" points="209.59 290.11 207.39 326.78 207.05 332.37 227.89 332.37 227.89 301.59 245.8 300.36 247.36 315.14 264.82 315.46 264.32 290.11 209.59 290.11"/><path class="cls-10" d="M223.74,502.15,194.82,504l-6.19-4.8a232,232,0,0,1,27.78-4.5"/><path class="cls-10" d="M247.54,502.15,276.46,504l6.18-4.8a231.54,231.54,0,0,0-27.78-4.5"/><polygon class="cls-9" points="207.05 344.42 207.39 326.78 227.29 326.14 227.89 332.37 227.62 339.52 224.68 338.54 225 335.61 220.76 343.44 216.52 338.54 207.05 344.42"/><path class="cls-6" d="M100,270.34c-4.07.88-3.1,10.21-2.87,13.16l-.42,0a26.21,26.21,0,0,0-5.81.16c-3,.47-17.3,4.37-17.24,8.51-.16,5.6,16.4-2.95,19.08-4.32-4.3,2.33-9.91,9.42-8.17,14.55,5.49,1.13,8.49-11.44,9.46-15.32-.07,2.46-.68,11,3.48,8,2.17-1.51,1.78-5.46,1.52-7.72l0-2.89C101.51,282.42,105.31,269.36,100,270.34Z"/><path class="cls-11" d="M84.88,503.33c.53-8,.82-16.06,1.09-24.12s.4-16.14.56-24.23.31-16.21.64-24.33.75-16.25,1.44-24.39l.11,1.26c-1.73-6.48-5.06-12.71-8.56-19-1.75-3.16-3.55-6.37-5.23-9.72a76.45,76.45,0,0,1-4.47-10.51l-.3-.92.18-.91,7-35.76,7.13-35.74-.05.88c-.42-5.55-.72-11.09-1-16.62s-.49-11.05-.68-16.56l-.86-33v-.14c.11-1.31.27-2.64.48-4a16.57,16.57,0,0,1,1.06-3.9l.46.12a21.66,21.66,0,0,0-.07,3.86c.07,1.29.23,2.58.34,3.89v-.14c1.23,5.43,2.1,10.94,2.81,16.45s1.21,11,1.61,16.55.67,11,1,16.52.72,11,1.22,16.42l0,.42-.08.46L84.18,332,77.45,367.8,77.33,366c2.17,6.44,5.67,12.62,9.21,19,1.77,3.2,3.55,6.45,5.17,9.87a64.3,64.3,0,0,1,4.07,10.8l.17.62-.06.64c-.7,8-1.18,16-1.54,24.06s-.62,16.13-.91,24.21-.55,16.19-.92,24.3-.91,16.24-1.66,24.35Z"/><path class="cls-12" d="M300.42,229.7A55,55,0,0,0,286,223.86l-.14,0c-.28-.08-.56-.14-.85-.2s-.73-.16-1.1-.26A3.33,3.33,0,0,1,283,223a39.67,39.67,0,0,0-4.25-1c-.74-.11-1.5-.24-2.24-.37-1.1-.19-2.15-.38-3.19-.49-.86-.06-1.64-.17-2.4-.28s-1.19-.16-1.73-.21l-1.25,0c-2-.25-4-.33-6.06-.42-1.06-.05-2.12-.09-3.19-.16a14.47,14.47,0,0,0-1.85,0c-.61,0-1.24.06-1.9,0l.13-6c.48,0,1,0,1.45-.05a18.4,18.4,0,0,1,2.58,0c1,.06,2,.1,3,.14,2.06.09,4.18.18,6.36.44h1c.77.06,1.51.16,2.23.26s1.36.19,2,.24h.11c1.27.13,2.48.34,3.65.55.7.12,1.41.25,2.14.36a43.73,43.73,0,0,1,5.35,1.24,3,3,0,0,1,.83.34l.41.09c.39.08.78.17,1.17.28a61.62,61.62,0,0,1,15.89,6.42Z"/><path class="cls-12" d="M125.78,292.5a166.77,166.77,0,0,1-27.29-2.14l1.06-5.87c.55.1,55.12,9.63,86.8-14.34,13-9.8,20.42-24,22.19-42.28l5.93.57c-1.93,20-10.19,35.62-24.54,46.48C170.94,289.27,145.14,292.5,125.78,292.5Z"/><path class="cls-13" d="M275.66,207.84a38.16,38.16,0,0,0-18.92-15.43c3.25-.93,3.73-6.63,1.53-9.56s-5.75-3.77-9-4.44L148.86,165.72c-4,1.09-8.2,2.24-11.59,5s-5.88,7.64-5,12.37c.66,3.72,4,6.62,7.05,6.44l-.24.13.61-.08a10.49,10.49,0,0,1,5.39,1.2,10.51,10.51,0,0,1,4.51,2.9,10.37,10.37,0,0,1,2.89,4.5,10.56,10.56,0,0,1,1.21,5.4,12.59,12.59,0,0,1-.25,1.93,7.07,7.07,0,0,1-1,3.54,6.93,6.93,0,0,1-.81,1.82c-3.67,6.68-2.42,16.89,3.46,21.05,6.47,4.57,16.55-1.06,16.83-9.86-.12,5.61-.1,11.41,1.81,16.56s6.16,9.54,11,9.36c3.7-.13,7.11-3.85,7.6-7.89.63,9.12-1.19,19.41,4.67,25.07a11.72,11.72,0,0,0,7.5,3.1c10.21.61,19.68-10.87,18.74-22.72,1.57,6.81,8.21,11.42,14.11,9.78,5-1.39,8.78-7.14,9-13.09,1.06,7.23,6.3,13.57,12.59,14.65,7.16,1.24,14.72-4.49,16.64-12.61a20.18,20.18,0,0,0-3-15.68,6.61,6.61,0,0,0,6-3.63C281.09,219.6,278.84,212.77,275.66,207.84Z"/><path class="cls-14" d="M151.54,157.49c-7.38.86-14.11,4.63-21.58,4.74-9,.13-18.65-7.27-17.27-15.44-5.68,4.42-8.76,11.21-9.63,18.11-2.43,19.18,7.89,41.46,27.31,47.41,21.18,6.49,46.25-11.08,49.5-32.56C182,165.9,165.49,155.87,151.54,157.49Z"/><path class="cls-15" d="M325.79,247a13.61,13.61,0,0,1-1.65,1.11,28.68,28.68,0,0,1-3.46,1.5,16.24,16.24,0,0,1-3.08.81c-1.85.32-3.73.56-5.6.72s-3.86.32-5.78.55c-2.37.3-4.74.55-7.11.77-5.06.47-10.13.76-15.21.77A123,123,0,0,1,266.53,252a61.32,61.32,0,0,1-13.94-3.46,9.21,9.21,0,0,1-3.41-1.78,53.89,53.89,0,0,0-16.54,38.86c0,30,24.5,54.25,54.72,54.25s54.72-24.28,54.72-54.25A53.89,53.89,0,0,0,325.79,247Z"/><path class="cls-16" d="M328.16,276.77l-2-.2a21.9,21.9,0,0,1-8.69-.47,7,7,0,0,1-3.13-1.65,8.06,8.06,0,0,1-1-.75c-1.9-.13-3.79-.34-5.7-.64a6.82,6.82,0,0,1-3.13-1.65,4.61,4.61,0,0,1-1.66-1.65l0,0c-2.19.2-4.39.41-6.57.67s-4.09.71-6.12,1.21a143.88,143.88,0,0,1-14.5,3.11,36.57,36.57,0,0,1-8.92.58,30.61,30.61,0,0,1-3.67-.53,18.88,18.88,0,0,1-3.25-1.27,9.33,9.33,0,0,1-1.81-1.23,10.9,10.9,0,0,1-1.28-1l-.21-.23a32.55,32.55,0,0,1-2.12,2.69,13.26,13.26,0,0,1-1.88,1.62,13.05,13.05,0,0,1-1.41,1l-.27.14a17.83,17.83,0,0,1-2.43,1c-.11,0-2.37.32-2.47.33h-.68a9.62,9.62,0,0,1-6.52-2.7c-.17-.17-.34-.34-.5-.52A50.49,50.49,0,1,0,337,276.86,43.36,43.36,0,0,1,328.16,276.77Z"/><path class="cls-17" d="M287,273.72c9.36.75,18.75.94,28.13,1.33a7,7,0,0,1-.75-.6,8.06,8.06,0,0,1-1-.75c-1.9-.13-3.79-.34-5.7-.64a6.82,6.82,0,0,1-3.13-1.65,4.61,4.61,0,0,1-1.66-1.65l0,0c-2.19.2-4.39.41-6.57.67s-4.09.71-6.12,1.21c-2.42.6-4.84,1.21-7.27,1.76C284.23,273.49,285.59,273.62,287,273.72Z"/><path class="cls-17" d="M317.84,322.84c-1-.1-1.95-.19-2.92-.27-13.65-1.05-27.3.59-40.95.71-3.41,0-6.83,0-10.23-.26-1.66-.12-3.31-.27-5-.46a66.37,66.37,0,0,1-7-1l-.25-.06A50.79,50.79,0,0,0,321,323.54C319.94,323.32,318.89,323.08,317.84,322.84Z"/><path class="cls-14" d="M287.18,253.79c-15.59,0-38.79-1.83-38.79-6.88s23.2-6.89,38.79-6.89,38.8,1.84,38.8,6.89S302.78,253.79,287.18,253.79Zm0-12.13c-24.39,0-37.16,3.42-37.16,5.25s12.77,5.25,37.16,5.25,37.17-3.42,37.17-5.25S311.58,241.66,287.18,241.66Z"/><path class="cls-14" d="M287.36,340.71c-30.62,0-55.54-24.7-55.54-55.07A54.4,54.4,0,0,1,249,245.78l1.12,1.19a52.76,52.76,0,0,0-16.7,38.67c0,29.47,24.18,53.44,53.9,53.44s53.9-24,53.9-53.44a53.35,53.35,0,0,0-17.53-39.43l1.1-1.21a55,55,0,0,1,18.06,40.64C342.89,316,318,340.71,287.36,340.71Z"/><ellipse class="cls-15" cx="287.18" cy="246.91" rx="37.98" ry="6.07"/><path class="cls-14" d="M287.18,253.79c-15.59,0-38.79-1.83-38.79-6.88s23.2-6.89,38.79-6.89,38.8,1.84,38.8,6.89S302.78,253.79,287.18,253.79Zm0-12.13c-24.39,0-37.16,3.42-37.16,5.25s12.77,5.25,37.16,5.25,37.17-3.42,37.17-5.25S311.58,241.66,287.18,241.66Z"/><ellipse class="cls-18" cx="287.24" cy="276.31" rx="49.7" ry="7"/><ellipse class="cls-19" cx="287.48" cy="322.74" rx="34.35" ry="4.89"/><path class="cls-20" d="M295.73,307.5l7.92-8.59s.1,14.69.21,15S295.73,307.5,295.73,307.5Z"/><path class="cls-8" d="M267.55,296.12a.23.23,0,1,0-.44-.14.26.26,0,0,0,.14.33A.26.26,0,0,0,267.55,296.12Z"/><path class="cls-20" d="M263.78,301.47s-2.53-1.28-3.15-.48c-1.71,2.19,13.05,25.17,35.39,6.55C296,307.54,281.33,270.89,263.78,301.47Z"/><path class="cls-20" d="M285.06,291.91c1.74-3.08,7.28-3.29,9.77-1,.74.66,1.12,2.39-.32,2.41a5.79,5.79,0,0,1-2.21-.83,11,11,0,0,0-2.51-.76c-2.05-.32-3.33.41-4.74,1.74,0,0,0-.08.11-.13"/><path class="cls-20" d="M284.47,293.05c-1.49-3.22,1.58-7.84,4.89-8.53,1-.21,2.59.49,1.76,1.67-.41.63-1.33.93-2,1.31a11.08,11.08,0,0,0-2.08,1.6c-1.45,1.47-1.61,2.94-1.35,4.86,0,0,0-.08,0-.17"/><path class="cls-20" d="M285.53,293c2.31-1.46,6.16.41,7,2.87.26.71-.11,2-1.09,1.52-.53-.25-.85-.92-1.21-1.36a8.12,8.12,0,0,0-1.44-1.43A3.93,3.93,0,0,0,285,294s.06,0,.12,0"/><path class="cls-21" d="M289.64,302.38s2.87,1.67-.22,3.25c0,0,2.26-1.07.28-3.22Z"/><path class="cls-21" d="M287.63,300.18s2.87,1.67-.23,3.25c0,0,2.27-1.07.28-3.22Z"/><path class="cls-21" d="M285.49,302.51s2.27,1.32-.17,2.56c0,0,1.78-.84.22-2.53Z"/><path class="cls-21" d="M287.77,304.54s2.87,1.67-.22,3.25c0,0,2.26-1.07.28-3.22Z"/><path class="cls-21" d="M290.72,305.91s2.29,1.34-.18,2.6c0,0,1.81-.86.22-2.57Z"/><path class="cls-21" d="M291.94,302.55s2.3,1.34-.17,2.6c0,0,1.81-.86.22-2.57Z"/><path class="cls-21" d="M293.47,305.75s1.75,1-.14,2c0,0,1.38-.66.17-2Z"/><g class="cls-22"><path class="cls-21" d="M305.38,313.78c-.12,0-.81-.36-9.24-5.85l-.46.08-.87.67-.16-.21.46-.35-.58.11,1.11-.54-1.65-.32.53-.81.11.07,1.3.85h0l8.88-6.81,0,2.82-.07,0-8.28,4.06h.07L305,306l-.41,3.41-8.06-1.55h0c3.93,2.56,8.59,5.57,8.87,5.67l0,.11h0l.13,0-.08.08Zm-8.18-6,7.15,1.38.34-2.79Zm-2.78-.54.84.16-.67-.43Zm10.14-6-7.63,5.85,7.6-3.73Z"/></g><path class="cls-21" d="M265.64,309.33c13.42,9,29.69-1.39,30.39-1.85l0,.07C282.42,318.92,271.6,314.78,265.64,309.33Z"/><path class="cls-8" d="M263.78,301.47c7.57-13.2,14.62-13.87,20.17-10.37-1.2-.74-10.6-5.7-20,10.61,0,0-2.09-1.16-3.48-.31a.67.67,0,0,1,.13-.41C261.25,300.19,263.78,301.47,263.78,301.47Z"/><path class="cls-8" d="M284.13,290.59c.33-2.73,2.71-5.54,5.23-6.07a2.2,2.2,0,0,1,1,.05C288.84,284.79,285.81,285.84,284.13,290.59Z"/><path class="cls-8" d="M294.83,290.9a2.18,2.18,0,0,1,.61,1.08c-.76-1.06-3.44-3.88-9.44-1.2A7.36,7.36,0,0,1,294.83,290.9Z"/><path class="cls-23" d="M269.61,297.94a2.15,2.15,0,1,0,2-2.27A2.15,2.15,0,0,0,269.61,297.94Z"/><path class="cls-8" d="M269.9,297.35a.36.36,0,1,0,.69.15.39.39,0,0,0-.26-.47A.38.38,0,0,0,269.9,297.35Z"/><circle class="cls-8" cx="256.17" cy="297.52" r="2.68"/><circle class="cls-8" cx="261.77" cy="291.84" r="0.79"/><circle class="cls-8" cx="255.65" cy="288.17" r="1.66"/><path class="cls-12" d="M328.92,301.18,323.08,300c4.06-19.51,3.48-34.34-1.85-46.69a3.62,3.62,0,0,1-.26-.87,45.66,45.66,0,0,0-13.84-18.06l-.29-.25-.41-.41a63.62,63.62,0,0,0-6.15-3.95l-.12-.06-.54-.35a5.08,5.08,0,0,0-.43-.27l1.94-5.63a7.45,7.45,0,0,1,1.77.92l.28.19a70,70,0,0,1,6.72,4.3l.56.45.46.46a51.5,51.5,0,0,1,15.64,20.58,3.21,3.21,0,0,1,.28.91C334.34,268.92,331.62,288.19,328.92,301.18Z"/><path class="cls-6" d="M315.67,285.14c-2.34,3.43,4.78,9.54,7,11.53l-.28.31a26.62,26.62,0,0,0-4.11,4.11c-1.86,2.4-9.56,15.07-6.66,18,3.73,4.18,9.88-13.42,10.87-16.26-1.5,4.65-.71,13.66,4.08,16.18,4.77-3-1.7-14.14-3.67-17.62,1.65,1.83,7.05,8.43,8.07,3.44.53-2.58-2.47-5.18-4.22-6.65l-2-2.12C325.09,292.87,318.87,280.77,315.67,285.14Z"/><path class="cls-13" d="M251.46,194.59c2-7.88,6.22-15.66,13.07-19.1s16.5-.72,19.08,7c-2-5.79.79-13,5.95-15.53s12-.2,14.77,5.16c-2.08-4.55-4-9.35-4.24-14.42s1.48-10.53,5.37-13.37,10-2,12.31,2.41c-1.84-8.31,5.76-15.65,13.23-18.42,4.79-1.77,10.24-2.53,14.78-.11,7.14,3.82,9.27,14,8,22.55-1.94,12.92-11.5,25.37-23.57,25.56,5.52,5.58,3.11,16-2,22-2.7,3.12-8.36,5-9.85,1.08-1.95,12.23-10.75,22.88-21.75,26.33-8.58,2.69-19.85-.4-22.42-9.67"/><path class="cls-14" d="M208.14,160.58c9.43,2.11,17.35,7.22,27.07,8.54,11.72,1.6,26-4.74,26-13.67a25.43,25.43,0,0,1,8.49,20.88c-2,36.69-42.68,55.37-74.5,41.6-16.54-7.16-29.35-23.5-29-38.19C166.59,164.62,190.32,156.6,208.14,160.58Z"/><path class="cls-20" d="M103.59,245.21l21.16-9.63s-11.16,27-11.23,27.74S103.59,245.21,103.59,245.21Z"/><path class="cls-8" d="M60.69,202.62a.46.46,0,1,0-.69.11A.5.5,0,0,0,60.69,202.62Z"/><path class="cls-2" d="M49.65,209.53s-3.65-4.31-5.41-3.33c-4.82,2.71,4.53,56.24,59.86,39.32C104.1,245.52,105.41,167,49.65,209.53Z"/><path class="cls-2" d="M96,208.39c5.58-4.3,15.9-.4,18.7,5.7.84,1.77.21,5.25-2.44,4.16-1.41-.52-2.39-2.17-3.41-3.21a21.84,21.84,0,0,0-4-3.33c-3.5-2.17-6.41-1.83-10-.47.08,0,.14-.12.31-.15"/><path class="cls-2" d="M94.08,210c-.24-7,9-13.14,15.54-11.86,1.93.35,4.39,2.9,2,4.41-1.25.84-3.16.68-4.6.89a22.09,22.09,0,0,0-5.06,1.34c-3.8,1.57-5.23,4.14-6.23,7.87,0-.08,0-.19,0-.34"/><path class="cls-2" d="M96.09,210.72c5.36-.91,11,5.49,10.68,10.67-.07,1.51-1.76,3.66-3.18,2-.77-.87-.84-2.35-1.15-3.43a17.35,17.35,0,0,0-1.54-3.73c-1.6-2.75-3.72-3.58-6.67-4,.06,0,.14,0,.26,0"/><path class="cls-21" d="M96.37,231.12s4,5.29-2.91,5.79c0,0,5-.21,3-5.67Z"/><path class="cls-21" d="M94.38,225.54s4,5.29-2.92,5.79c0,0,5-.21,3-5.68Z"/><path class="cls-21" d="M88.67,228.17s3.13,4.17-2.3,4.57c0,0,3.92-.18,2.36-4.48Z"/><path class="cls-21" d="M91.28,233.64s4,5.29-2.91,5.8c0,0,5-.22,3-5.68Z"/><path class="cls-21" d="M95.63,238.44s3.17,4.22-2.33,4.63c0,0,4-.18,2.39-4.54Z"/><path class="cls-21" d="M100.47,233.22s3.17,4.22-2.33,4.63c0,0,4-.18,2.39-4.54Z"/><path class="cls-21" d="M100.79,240.27s2.42,3.23-1.78,3.54c0,0,3-.14,1.83-3.47Z"/><path class="cls-2" d="M103.59,245.21l21.16-9.63s-11.16,27-11.23,27.74S103.59,245.21,103.59,245.21Z"/><g class="cls-24"><path class="cls-21" d="M116.48,264.18c-.16,0-.39,0-12.47-17.86l-.91-.2-2.1.55-.13-.5,1.11-.29-1.16-.25,2.45-.14-2.77-1.84,1.59-1.09.15.22,1.73,2.56,0,0,21.54-5.65-2.24,5.14-18.46,1.07.12.08,16.77,3.6-3.38,6-13.6-9.07c5.24,7.73,11.46,16.83,11.9,17.24l-.15.16v0l.2.16Zm-10.36-17.41,12,8,2.77-4.85Zm18.51-6.29-18.49,4.85,16.81-1Zm-23.21,3.16,1.42.94-.89-1.3Z"/></g><path class="cls-21" d="M47,225.37c17.7,26.79,55.53,20.34,57.17,20v.15C70.37,255.9,53.73,240,47,225.37Z"/><path class="cls-8" d="M49.65,209.53c24.07-18.36,37.5-14.17,45-3.47-1.65-2.27-15-18.63-44.81,4.06,0,0-2.94-3.75-6.15-3.26a1.49,1.49,0,0,1,.55-.66C46,205.22,49.65,209.53,49.65,209.53Z"/><path class="cls-8" d="M95.35,205.27c2.71-4.75,9.25-8.08,14.27-7.1a4.11,4.11,0,0,1,1.76.85C108.47,198.26,102.12,197.85,95.35,205.27Z"/><path class="cls-8" d="M114.74,214.09a4.33,4.33,0,0,1,.29,2.44c-.57-2.53-3.33-9.76-16.39-9.47C104.37,205.23,112.33,208.85,114.74,214.09Z"/><path class="cls-23" d="M63.07,207.54A4.28,4.28,0,1,0,68.52,205,4.28,4.28,0,0,0,63.07,207.54Z"/><path class="cls-8" d="M64.06,206.69a.7.7,0,1,0,1-.25A.76.76,0,0,0,64.06,206.69Z"/><path class="cls-11" d="M81.42,211.86c.6-5.59,1.35-11.06,1.61-16.42a59.73,59.73,0,0,0,0-7.92c-.11-1.3-.25-2.56-.46-3.87s-.42-2.73-.62-4.12c-.77-5.6-1.63-11-2.43-16.55L76.89,146.5Q75.6,138.25,74.21,130l-2.73-16.49-1.39-8.25c-.47-2.75-1-5.49-1.29-8.27s-.61-5.56-.73-8.37a61.19,61.19,0,0,1,.14-8.55l.46-.09a61.54,61.54,0,0,1,3.25,7.91c.91,2.66,1.69,5.36,2.38,8.07s1.23,5.44,1.79,8.18l1.67,8.21c1.1,5.48,2.22,11,3.25,16.45s2,11,3,16.5c1.89,11,3.62,22.15,5,33.16.19,1.38.34,2.72.58,4.17s.33,3,.41,4.45a67.75,67.75,0,0,1-.18,8.8c-.49,5.79-1.52,11.35-2.46,16.8Z"/><path class="cls-25" d="M76,211.62s11.69-2.92,16.24,3.68C92.28,215.3,89.24,212.38,76,211.62Z"/><polygon class="cls-7" points="239.3 519.06 208.28 527.24 327.03 543.54 371.19 512.78 239.3 519.06"/><polygon class="cls-26" points="231.24 449.9 271.48 428.38 370.21 440.27 338.06 463.67 231.24 449.9"/><polygon class="cls-27" points="338.85 534.54 371.19 512.78 370.21 440.27 337.02 462.38 338.85 534.54"/><polygon class="cls-28" points="338.85 534.54 337.02 462.38 231.24 449.9 235.3 520.85 338.85 534.54"/><rect class="cls-29" x="302.19" y="398.66" width="1.17" height="91.41" transform="translate(-174.99 691.1) rotate(-83.04)"/><polygon class="cls-26" points="342.31 530.06 341.3 529.75 367.66 443.76 368.68 444.07 342.31 530.06"/><rect class="cls-26" x="353.62" y="459.46" width="1.06" height="55.68" transform="translate(-204.08 260.88) rotate(-31.91)"/><path class="cls-27" d="M253.35,465l.8,43.42,64,14.23-.92-48Zm30.89,32.74L258.65,469l52.39,8.2Zm-10.36-7.29-17,13.4-.61-33.23Zm2.35,2.66,8.09,9.13,8-6.07,19.5,21.56-52.51-11.4Zm18.5,1.24,19.18-14.53.7,36.36Zm0,0"/><path class="cls-10" d="M263.17,445.72l28.92,1.9,6.19-4.81a231.54,231.54,0,0,0-27.78-4.5"/><path class="cls-10" d="M301.31,338.76a58.49,58.49,0,0,1-4.72.95l-.16.09,13.18,23.38-37,76.81,4.29,2.07L315,363Z"/><path class="cls-14" d="M276.06,199.2s10.46,19.19,19.19-2.33C295.25,196.87,287.1,212.57,276.06,199.2Z"/><path class="cls-14" d="M288,189.84s10.46,19.19,19.19-2.32C307.18,187.52,299,203.22,288,189.84Z"/><path class="cls-14" d="M299.59,196.32s6.22,11.4,11.4-1.39C311,194.93,306.16,204.26,299.59,196.32Z"/><path class="cls-14" d="M154.54,215.18s5.42,15,14.08.45C168.62,215.63,161,226,154.54,215.18Z"/><path class="cls-14" d="M164.17,209.77s5.42,15,14.07.44C178.24,210.21,170.65,220.62,164.17,209.77Z"/><path class="cls-14" d="M171.81,215.71s3.22,8.89,8.36.26C180.17,216,175.66,222.15,171.81,215.71Z"/><path class="cls-14" d="M200.85,238.3S211.32,257.49,220,236C220,236,211.9,251.68,200.85,238.3Z"/><path class="cls-14" d="M212.78,229s10.47,19.19,19.2-2.33C232,226.62,223.83,242.32,212.78,229Z"/><path class="cls-14" d="M224.39,235.42s6.22,11.4,11.4-1.38C235.79,234,231,243.37,224.39,235.42Z"/><path class="cls-14" d="M311.37,160s10.47,19.19,19.19-2.33C330.56,157.66,322.42,173.36,311.37,160Z"/><path class="cls-14" d="M323.3,150.64s10.47,19.19,19.19-2.33C342.49,148.31,334.35,164,323.3,150.64Z"/><path class="cls-14" d="M334.91,157.11s6.22,11.4,11.4-1.38C346.31,155.73,341.48,165.05,334.91,157.11Z"/></g></g></svg>